{"title":"The Spy Who Loved Me(1977)MPEG-4[DaScubaDude]","uid":15303067,"size":1425132123,"categoryP":"video","categoryS":"movies","magnet":"?xt=urn:btih:ca8b620607279408df9141699db2918f673ac329&amp;dn=The+Spy+Who+Loved+Me%281977%29MPEG-4%5BDaScubaDude%5D&amp;tr=udp%3A%2F%2Ftracker.leechers-paradise.org%3A6969&amp;tr=udp%3A%2F%2Fzer0day.ch%3A1337&amp;tr=udp%3A%2F%2Fopen.demonii.com%3A1337&amp;tr=udp%3A%2F%2Ftracker.coppersurfer.tk%3A6969&amp;tr=udp%3A%2F%2Fexodus.desync.com%3A6969","seeders":0,"leechers":1,"uploader":"dascuba","files":1,"time":1468506572,"description":"The Spy Who Loved Me (1977)\r\nPG | 2h 5min | Action, Adventure, Sci-Fi | 3 August 1977 (USA)\r\nJames Bond investigates the hijacking of British and Russian submarines carrying nuclear warheads with the help of a KGB agent whose lover he killed.\r\nDirector: Lewis Gilbert\r\nWriters: Christopher Wood (screenplay), Richard Maibaum (screenplay)\r\nStars: Roger Moore, Barbara Bach, Curd Jürgens |\r\n\r\nGeneral\r\nComplete name                            : TheSpyWhoLovedMeTHE_SPY_WHO_LOVED_ME_Title11.mp4\r\nFormat                                   : MPEG-4\r\nFormat profile                           : Base Media\r\nCodec ID                                 : isom (isom/iso2/avc1/mp41)\r\nFile size                                : 1.33 GiB\r\nDuration                                 : 2h 5mn\r\nOverall bit rate                         : 1 513 Kbps\r\nMovie name                               : THE_SPY_WHO_LOVED_ME\r\nGenre                                    : Action\r\nWriting application                      : Lavf54.6.100\r\n\r\nVideo\r\nID                                       : 1\r\nFormat                                   : AVC\r\nFormat/Info                              : Advanced Video Codec\r\nFormat profile                           :   \r\nFormat settings, CABAC                   : No\r\nFormat settings, ReFrames                : 6 frames\r\nCodec ID                                 : avc1\r\nCodec ID/Info                            : Advanced Video Coding\r\nDuration                                 : 2h 5mn\r\nBit rate                                 : 1 215 Kbps\r\nWidth                                    : 720 pixels\r\nHeight                                   : 404 pixels\r\nDisplay aspect ratio                     : 16:9\r\nFrame rate mode                          : Constant\r\nFrame rate                               : 29.970 (30000/1001) fps\r\nColor space                              : YUV\r\nChroma subsampling                       : 4:2:0\r\nBit depth                                : 8 bits\r\nScan type                                : Progressive\r\nBits/(Pixel*Frame)                       : 0.139\r\nStream size                              : 1.07 GiB (80%)\r\n\r\nAudio\r\nID                                       : 2\r\nFormat                                   : AAC\r\nFormat/Info                              : Advanced Audio Codec\r\nFormat profile                           : LC\r\nCodec ID                                 : 40\r\nDuration                                 : 2h 5mn\r\nBit rate mode                            : Constant\r\nBit rate                                 : 288 Kbps\r\nChannel(s)                               : 2 channels\r\nChannel(s)_Original                      : 6 channels\r\nChannel positions                        : Front: L C R, Side: L R, LFE\r\nSampling rate                            : 44.1 KHz\r\nFrame rate                               : 43.066 fps (1024 spf)\r\nCompression mode                         : Lossy\r\nStream size                              : 262 MiB (19%)\r\nDefault                                  : Yes\r\nAlternate group                          : 1","torrent":{"xt":"urn:btih:ca8b620607279408df9141699db2918f673ac329","amp;dn":"The+Spy+Who+Loved+Me%281977%29MPEG-4%5BDaScubaDude%5D","amp;tr":["udp%3A%2F%2Ftracker.leechers-paradise.org%3A6969","udp%3A%2F%2Fzer0day.ch%3A1337","udp%3A%2F%2Fopen.demonii.com%3A1337","udp%3A%2F%2Ftracker.coppersurfer.tk%3A6969","udp%3A%2F%2Fexodus.desync.com%3A6969"],"infoHash":"ca8b620607279408df9141699db2918f673ac329","infoHashBuffer":{"type":"Buffer","data":[202,139,98,6,7,39,148,8,223,145,65,105,157,178,145,143,103,58,195,41]},"announce":[],"urlList":[]}}